<svg width="150" height="150" viewBox="0 0 150 150" fill="none" xmlns="http://www.w3.org/2000/svg">
<g clip-path="url(#clip0)">
<path d="M0 0H150V150H0V0Z" fill="white"/>
<path d="M151.095 -0.623047H-0.866211V151.339H151.095V-0.623047Z" fill="white"/>
<path d="M66.1597 69.1165C69.1446 69.5235 72.1296 69.7949 75.1145 69.7949C77.6924 69.7949 80.1347 69.6592 82.5769 69.3878" fill="#414042"/>
<path d="M161 153.374C160.457 146.183 159.507 139.263 154.759 134.107C152.316 131.258 147.296 129.087 143.904 127.188L132.914 121.353C132.914 118.097 132.371 108.735 129.794 97.745C129.794 97.745 129.794 97.745 129.794 97.6093C129.794 97.4736 129.794 97.4736 129.794 97.3379C129.115 94.76 127.351 92.4534 124.638 90.5539C122.196 88.7901 119.618 87.2976 117.175 85.9408C117.582 83.6342 117.989 81.192 118.397 78.8854L118.261 81.192C117.989 84.3126 120.296 87.0263 123.417 87.2976L129.115 87.8403V87.7046C129.386 87.8403 129.658 87.8403 130.065 87.8403C130.743 87.8403 131.422 87.8403 131.965 87.8403H132.1C137.934 87.8403 142.547 83.0915 142.547 77.393V64.7747L142.683 63.1466C143.09 58.8048 140.784 54.8701 137.12 52.9705C136.713 52.8349 136.442 52.5635 136.035 52.4278V49.7142C136.035 23.3923 108.492 1.95483 74.7074 1.95483C61.9535 1.95483 50.0137 5.07548 40.109 10.367C39.2949 10.0956 38.6165 9.95996 38.0738 10.0956C37.124 10.5027 36.5814 11.4524 36.4457 12.4022C22.4707 21.2214 13.3801 34.6537 13.3801 49.7142V52.9705C9.85241 54.8701 7.54585 58.8048 7.95289 63.1466L8.08854 64.7747V77.393C8.08854 83.2272 12.8374 87.8403 18.5359 87.8403H18.6716C19.35 87.8403 19.8927 87.976 20.5711 87.8403C20.8425 87.8403 21.1139 87.7046 21.5209 87.7046V87.8403L27.2194 87.2976C30.34 87.0263 32.6467 84.3126 32.3753 81.192L32.1039 78.3427C32.6467 81.192 33.1894 84.0413 33.7321 86.7549C31.6969 87.976 29.6617 89.1971 27.6265 90.6896C24.9129 92.5891 23.2847 94.8957 22.6063 97.4736C22.6063 97.6093 22.4706 97.745 22.4706 97.8807C19.757 108.871 19.35 118.097 19.35 121.489L8.35991 127.323C4.01815 129.63 -2.90152 132.886 -5.61512 136.821C-9.1428 141.57 -8.19306 147.404 -8.6001 153.509L161 153.374ZM126.402 109.956C127.08 115.112 127.216 119.047 127.351 121.082C117.582 128.409 104.693 133.429 94.1097 136.549C97.5018 134.514 101.029 132.208 104.557 129.63C115.276 122.303 122.467 115.79 126.402 109.956ZM49.6066 115.79C55.8479 123.66 62.0892 130.851 63.039 131.665L63.1746 131.801H87.3257L87.4614 131.665C88.4112 130.851 94.5168 123.524 100.894 115.79C103.2 112.941 106.321 109.006 108.899 105.479C112.155 106.836 115.547 108.599 118.803 110.635C114.869 114.976 109.035 119.861 101.437 125.152C90.7178 132.615 79.5919 138.72 75.9286 140.62C72.2652 138.72 61.1395 132.615 50.4207 125.152C42.8227 119.861 36.9884 114.976 33.0537 110.635C36.0387 108.735 39.0236 107.243 41.8729 105.886C44.5865 109.278 47.4357 113.077 49.6066 115.79ZM121.381 95.0314C123.01 96.1168 123.959 97.4736 124.366 98.8304C124.366 98.8304 124.366 98.8304 124.366 98.9661C124.909 101.001 124.095 103.444 122.195 106.293C118.939 104.122 115.547 102.358 112.155 100.866C113.241 99.3731 114.055 98.0163 114.326 97.3379C114.733 96.2525 115.276 94.2173 115.819 91.6394C117.718 92.5891 119.618 93.8103 121.381 95.0314ZM74.5718 6.975C104.828 6.975 129.387 26.1059 129.387 49.7142V51.4781L126.402 51.2067C123.552 50.9353 121.11 52.8349 120.432 55.5485L120.025 36.6889V36.5533L119.889 36.4176C119.889 36.4176 116.09 30.9904 109.441 25.4275V22.8496L109.306 22.7139C109.17 22.5782 106.592 20.136 101.301 17.6937C96.2805 14.4374 89.0896 10.9097 80.5417 9.6886C77.5568 9.28156 75.2502 11.9952 71.7225 11.9952C69.1446 11.9952 64.6672 9.82428 60.5967 8.3318C65.0742 7.38204 69.6873 6.975 74.5718 6.975ZM108.356 24.342C108.356 24.4777 108.356 24.4777 108.356 24.342V24.342ZM52.1846 10.6384C51.9132 12.4022 51.7775 14.3017 50.285 14.5731C48.7925 14.7088 47.3001 14.166 45.6719 13.352C47.8428 12.4022 50.0137 11.4524 52.1846 10.6384ZM40.6518 24.342C40.6518 24.342 40.7874 24.4777 40.7874 24.6134L40.6518 24.7491V24.342ZM40.6518 26.1059C40.9231 25.8345 41.1945 25.5632 41.6015 25.4275C46.2147 30.4477 61.0038 45.5081 75.2502 45.5081C89.6323 45.5081 103.472 30.312 107.678 25.2918C107.949 25.4275 108.22 25.6989 108.356 25.8345V61.3827L108.221 61.5184C105.643 62.6038 90.5821 69.2522 75.1145 69.2522C59.5113 69.2522 42.9584 62.6038 40.5161 61.5184V26.1059H40.6518ZM39.9734 62.3325C39.9734 62.3325 42.687 63.5536 47.0287 65.0461C45.1292 67.0813 44.0438 69.7949 44.0438 72.7798C44.0438 79.1568 49.1996 84.177 55.4409 84.177C61.6822 84.177 66.8381 79.0211 66.8381 72.7798C66.8381 71.6944 66.7023 70.7446 66.431 69.6592C69.2803 70.0662 72.2652 70.3376 75.2502 70.3376C77.6924 70.3376 80.2704 70.2019 82.5769 69.9306C82.3056 70.8803 82.1698 71.8301 82.1698 72.7798C82.1698 79.1568 87.3257 84.177 93.567 84.177C99.8083 84.177 104.964 79.0211 104.964 72.7798C104.964 69.7949 103.879 67.217 101.979 65.1818C105.507 63.9606 107.949 62.8752 108.627 62.4682C109.442 63.2822 110.798 65.0461 111.748 67.3526C112.562 69.5235 112.698 71.8301 112.427 74.2723C112.02 77.393 110.798 80.5136 108.627 83.9056C99.5369 98.4234 91.2604 110.499 90.8534 111.177H57.2047C56.7977 110.499 48.5212 98.4234 39.4306 83.9056C37.3954 80.5136 36.0386 77.393 35.6316 74.2723C35.3602 71.8301 35.4959 69.5235 36.31 67.3526C37.5311 64.7747 39.0236 63.0109 39.9734 62.3325ZM29.526 36.4176V54.463C28.5762 52.2921 26.4053 50.9353 23.8274 51.071L19.757 51.4781V49.5785C19.757 37.2317 26.541 25.9702 37.3954 18.2364C38.0738 20.136 39.0236 21.7641 39.5663 22.8496V25.5632C33.1894 31.1261 29.6617 36.2819 29.526 36.4176ZM30.7471 65.7245L30.4758 62.6038L30.6114 36.8246C31.1541 36.0105 34.2748 31.8045 39.5663 27.0557V60.9757C38.8879 61.5184 36.8527 63.5536 35.6316 66.9456C34.8175 69.2522 34.5462 71.8301 34.8175 74.408C35.2246 77.6643 36.5813 81.0563 38.7522 84.4483C47.4357 98.2877 55.4409 109.956 56.5263 111.584L61.1394 119.997H87.4614L92.0745 111.584C93.16 109.956 101.165 98.2877 109.849 84.4483C112.019 80.9206 113.376 77.5286 113.783 74.408C114.055 71.8301 113.783 69.2522 112.969 66.9456C111.884 64.0963 110.256 62.3325 109.441 61.3827V26.6486C115.14 31.3974 118.396 35.8749 118.939 36.6889L119.618 63.9606C119.482 65.1818 115.411 92.1821 113.512 96.7952C112.698 98.8304 107.813 105.343 100.08 114.976C94.2455 122.167 88.2754 129.358 86.9186 130.715H63.5817C62.3606 129.358 56.255 122.303 50.4207 114.976C42.687 105.343 37.8025 98.8304 36.9884 96.7952C35.3602 92.8605 31.8326 71.8301 30.7471 65.7245ZM27.6265 98.9661C27.6265 98.8304 27.6265 98.8304 27.6265 98.9661C27.6265 98.8304 27.6265 98.8304 27.6265 98.9661C27.6265 98.8304 27.6265 98.8304 27.6265 98.9661C27.6265 98.8304 27.6265 98.8304 27.6265 98.9661C28.0335 97.4736 28.9832 96.2525 30.6114 95.0314C31.9682 94.0816 33.325 93.1319 34.6818 92.3178C35.2245 94.6243 35.6316 96.3882 36.0386 97.3379C36.4456 98.152 37.2598 99.6445 38.4809 101.408C35.4959 102.765 32.5109 104.393 29.526 106.293C27.7621 103.444 27.0838 100.866 27.6265 98.9661ZM25.4556 109.956C29.3903 115.79 36.7171 122.303 47.3001 129.63C50.8278 132.072 54.4911 134.379 57.8831 136.549C47.3001 133.429 34.4105 128.409 24.6415 121.082C24.6415 119.182 24.7772 115.112 25.4556 109.956ZM-3.44427 153.781C-3.03723 149.168 -2.76587 144.419 -0.730669 140.756C1.30453 137.092 4.96793 134.379 10.6665 132.072L21.7922 126.102C30.2044 132.343 41.6015 137.635 55.5766 141.841C56.1193 141.977 56.662 142.112 57.069 142.248V153.509C57.069 155.002 58.2901 156.223 59.7826 156.223C61.2751 156.223 62.4962 155.002 62.4962 153.509V143.876C69.6873 145.776 74.7075 146.59 75.2502 146.725C75.3859 146.725 75.5216 146.725 75.7929 146.725C75.9286 146.725 76.0643 146.725 76.3357 146.725C76.8784 146.59 82.0341 145.776 89.0895 143.876V153.509C89.0895 155.002 90.3106 156.223 91.8031 156.223C93.2956 156.223 94.5167 155.002 94.5167 153.509V142.248C95.0594 142.112 95.6023 141.977 96.0093 141.841C109.984 137.635 121.381 132.343 129.794 126.102L140.919 132.072C143.769 133.565 149.06 137.092 151.231 139.399C155.03 143.741 154.623 147.811 155.166 153.781" fill="#414042"/>
</g>
<defs>
<clipPath id="clip0">
<path d="M0 0H150V150H0V0Z" fill="white"/>
</clipPath>
</defs>
</svg>
